<svg width="128" height="128" viewBox="0 0 128 128" fill="none" xmlns="http://www.w3.org/2000/svg">
<path d="M57 42C57 38.0444 55.827 34.1776 53.6294 30.8886C51.4318 27.5996 48.3082 25.0362 44.6537 23.5224C40.9991 22.0087 36.9778 21.6126 33.0982 22.3843C29.2186 23.156 25.6549 25.0608 22.8579 27.8579C20.0608 30.6549 18.156 34.2186 17.3843 38.0982C16.6126 41.9778 17.0087 45.9991 18.5224 49.6537C20.0362 53.3082 22.5996 56.4318 25.8886 58.6294C29.1776 60.827 33.0444 62 37 62" stroke="black" stroke-width="4"/>
<path d="M11.9999 64H63.9999L67.9245 116H11.9245L11.9999 64Z" fill="black"/>
<path d="M55.0821 12H111.725L112.794 21.5V25L113.862 38L116 64H55L55.0821 12Z" fill="black"/>
<path d="M93 63.5H89V116H97L93 114V63.5Z" fill="black"/>
<path d="M78 63.5H82V116H74L78 114V63.5Z" fill="black"/>
<path d="M88 51.5C88 51.5 81.732 54 74 54C66.268 54 60 51.5 60 51.5C60 51.5 66.268 49 74 49C81.732 49 88 51.5 88 51.5Z" fill="#E1E1E1"/>
<circle cx="72" cy="50" r="4" fill="black"/>
</svg>
