<svg width="51" height="72" viewBox="0 0 51 72" fill="none" xmlns="http://www.w3.org/2000/svg">
<path d="M4 0H20L18 8H24V26C24 29.3137 21.3137 32 18 32H6C2.68629 32 0 29.3137 0 26V8H6L4 0Z" fill="black"/>
<path d="M1.01136 54V42.3636H3.47159V47.1648H8.46591V42.3636H10.9205V54H8.46591V49.1932H3.47159V54H1.01136ZM16.8466 54.1705C15.964 54.1705 15.2008 53.983 14.5568 53.608C13.9167 53.2292 13.4223 52.7027 13.0739 52.0284C12.7254 51.3504 12.5511 50.5644 12.5511 49.6705C12.5511 48.7689 12.7254 47.9811 13.0739 47.3068C13.4223 46.6288 13.9167 46.1023 14.5568 45.7273C15.2008 45.3485 15.964 45.1591 16.8466 45.1591C17.7292 45.1591 18.4905 45.3485 19.1307 45.7273C19.7746 46.1023 20.2708 46.6288 20.6193 47.3068C20.9678 47.9811 21.142 48.7689 21.142 49.6705C21.142 50.5644 20.9678 51.3504 20.6193 52.0284C20.2708 52.7027 19.7746 53.2292 19.1307 53.608C18.4905 53.983 17.7292 54.1705 16.8466 54.1705ZM16.858 52.2955C17.2595 52.2955 17.5947 52.1818 17.8636 51.9545C18.1326 51.7235 18.3352 51.4091 18.4716 51.0114C18.6117 50.6136 18.6818 50.161 18.6818 49.6534C18.6818 49.1458 18.6117 48.6932 18.4716 48.2955C18.3352 47.8977 18.1326 47.5833 17.8636 47.3523C17.5947 47.1212 17.2595 47.0057 16.858 47.0057C16.4527 47.0057 16.1117 47.1212 15.8352 47.3523C15.5625 47.5833 15.3561 47.8977 15.2159 48.2955C15.0795 48.6932 15.0114 49.1458 15.0114 49.6534C15.0114 50.161 15.0795 50.6136 15.2159 51.0114C15.3561 51.4091 15.5625 51.7235 15.8352 51.9545C16.1117 52.1818 16.4527 52.2955 16.858 52.2955ZM28.3125 50.2841V45.2727H30.733V54H28.4091V52.4148H28.3182C28.1212 52.9261 27.7936 53.3371 27.3352 53.6477C26.8807 53.9583 26.3258 54.1136 25.6705 54.1136C25.0871 54.1136 24.5739 53.9811 24.1307 53.7159C23.6875 53.4508 23.3409 53.0739 23.0909 52.5852C22.8447 52.0966 22.7197 51.5114 22.7159 50.8295V45.2727H25.1364V50.3977C25.1402 50.9129 25.2784 51.3201 25.5511 51.6193C25.8239 51.9186 26.1894 52.0682 26.6477 52.0682C26.9394 52.0682 27.2121 52.0019 27.4659 51.8693C27.7197 51.733 27.9242 51.5322 28.0795 51.267C28.2386 51.0019 28.3163 50.6742 28.3125 50.2841ZM39.9304 47.7614L37.7145 47.8977C37.6766 47.7083 37.5952 47.5379 37.4702 47.3864C37.3452 47.2311 37.1804 47.108 36.9759 47.017C36.7751 46.9223 36.5346 46.875 36.2543 46.875C35.8793 46.875 35.563 46.9545 35.3054 47.1136C35.0478 47.2689 34.919 47.4773 34.919 47.7386C34.919 47.947 35.0024 48.1231 35.169 48.267C35.3357 48.411 35.6217 48.5265 36.027 48.6136L37.6065 48.9318C38.455 49.1061 39.0876 49.3864 39.5043 49.7727C39.9209 50.1591 40.1293 50.6667 40.1293 51.2955C40.1293 51.8674 39.9607 52.3693 39.6236 52.8011C39.2902 53.233 38.8319 53.5701 38.2486 53.8125C37.669 54.0511 37.0005 54.1705 36.2429 54.1705C35.0876 54.1705 34.1671 53.9299 33.4815 53.4489C32.7997 52.964 32.4001 52.3049 32.2827 51.4716L34.6634 51.3466C34.7353 51.6989 34.9096 51.9678 35.1861 52.1534C35.4626 52.3352 35.8168 52.4261 36.2486 52.4261C36.6728 52.4261 37.0137 52.3447 37.2713 52.1818C37.5327 52.0152 37.6652 51.8011 37.669 51.5398C37.6652 51.3201 37.5724 51.1402 37.3906 51C37.2088 50.8561 36.9285 50.7462 36.5497 50.6705L35.0384 50.3693C34.1861 50.1989 33.5516 49.9034 33.1349 49.483C32.7221 49.0625 32.5156 48.5265 32.5156 47.875C32.5156 47.3144 32.6671 46.8314 32.9702 46.4261C33.277 46.0208 33.7069 45.7083 34.2599 45.4886C34.8168 45.2689 35.4683 45.1591 36.2145 45.1591C37.3168 45.1591 38.1842 45.392 38.8168 45.858C39.4531 46.3239 39.8243 46.9583 39.9304 47.7614ZM45.6307 54.1705C44.733 54.1705 43.9602 53.9886 43.3125 53.625C42.6686 53.2576 42.1723 52.7386 41.8239 52.0682C41.4754 51.3939 41.3011 50.5966 41.3011 49.6761C41.3011 48.7784 41.4754 47.9905 41.8239 47.3125C42.1723 46.6345 42.6629 46.1061 43.2955 45.7273C43.9318 45.3485 44.678 45.1591 45.5341 45.1591C46.1098 45.1591 46.6458 45.2519 47.142 45.4375C47.642 45.6193 48.0777 45.8939 48.4489 46.2614C48.8239 46.6288 49.1155 47.0909 49.3239 47.6477C49.5322 48.2008 49.6364 48.8485 49.6364 49.5909V50.2557H42.267V48.7557H47.358C47.358 48.4072 47.2822 48.0985 47.1307 47.8295C46.9792 47.5606 46.7689 47.3504 46.5 47.1989C46.2348 47.0436 45.9261 46.9659 45.5739 46.9659C45.2064 46.9659 44.8807 47.0511 44.5966 47.2216C44.3163 47.3883 44.0966 47.6136 43.9375 47.8977C43.7784 48.178 43.697 48.4905 43.6932 48.8352V50.2614C43.6932 50.6932 43.7727 51.0663 43.9318 51.3807C44.0947 51.6951 44.3239 51.9375 44.6193 52.108C44.9148 52.2784 45.2652 52.3636 45.6705 52.3636C45.9394 52.3636 46.1856 52.3258 46.4091 52.25C46.6326 52.1742 46.8239 52.0606 46.983 51.9091C47.142 51.7576 47.2633 51.572 47.3466 51.3523L49.5852 51.5C49.4716 52.0379 49.2386 52.5076 48.8864 52.9091C48.5379 53.3068 48.0871 53.6174 47.5341 53.8409C46.9848 54.0606 46.3504 54.1705 45.6307 54.1705ZM1.01136 70V58.3636H5.60227C6.48485 58.3636 7.23674 58.5322 7.85795 58.8693C8.47917 59.2027 8.95265 59.6667 9.27841 60.2614C9.60795 60.8523 9.77273 61.5341 9.77273 62.3068C9.77273 63.0795 9.60606 63.7614 9.27273 64.3523C8.93939 64.9432 8.45644 65.4034 7.82386 65.733C7.19508 66.0625 6.43371 66.2273 5.53977 66.2273H2.61364V64.2557H5.14205C5.61553 64.2557 6.00568 64.1742 6.3125 64.0114C6.62311 63.8447 6.85417 63.6155 7.00568 63.3239C7.16098 63.0284 7.23864 62.6894 7.23864 62.3068C7.23864 61.9205 7.16098 61.5833 7.00568 61.2955C6.85417 61.0038 6.62311 60.7784 6.3125 60.6193C6.00189 60.4564 5.60795 60.375 5.13068 60.375H3.47159V70H1.01136ZM13.7457 58.3636V70H11.3253V58.3636H13.7457ZM18.1733 70.1648C17.6165 70.1648 17.1203 70.0682 16.6847 69.875C16.2491 69.678 15.9044 69.3883 15.6506 69.0057C15.4006 68.6193 15.2756 68.1383 15.2756 67.5625C15.2756 67.0777 15.3646 66.6705 15.5426 66.3409C15.7206 66.0114 15.9631 65.7462 16.2699 65.5455C16.5767 65.3447 16.9252 65.1932 17.3153 65.0909C17.7093 64.9886 18.1222 64.9167 18.554 64.875C19.0616 64.822 19.4706 64.7727 19.7812 64.7273C20.0919 64.678 20.3172 64.6061 20.4574 64.5114C20.5975 64.4167 20.6676 64.2765 20.6676 64.0909V64.0568C20.6676 63.697 20.554 63.4186 20.3267 63.2216C20.1032 63.0246 19.785 62.9261 19.3722 62.9261C18.9366 62.9261 18.59 63.0227 18.3324 63.2159C18.0748 63.4053 17.9044 63.6439 17.821 63.9318L15.5824 63.75C15.696 63.2197 15.9195 62.7614 16.2528 62.375C16.5862 61.9848 17.0161 61.6856 17.5426 61.4773C18.0729 61.2652 18.6866 61.1591 19.3835 61.1591C19.8684 61.1591 20.3324 61.2159 20.7756 61.3295C21.2225 61.4432 21.6184 61.6193 21.9631 61.858C22.3116 62.0966 22.5862 62.4034 22.7869 62.7784C22.9877 63.1496 23.0881 63.5947 23.0881 64.1136V70H20.7926V68.7898H20.7244C20.5843 69.0625 20.3968 69.303 20.1619 69.5114C19.9271 69.7159 19.6449 69.8769 19.3153 69.9943C18.9858 70.108 18.6051 70.1648 18.1733 70.1648ZM18.8665 68.4943C19.2225 68.4943 19.5369 68.4242 19.8097 68.2841C20.0824 68.1402 20.2964 67.947 20.4517 67.7045C20.607 67.4621 20.6847 67.1875 20.6847 66.8807V65.9545C20.6089 66.0038 20.5047 66.0492 20.3722 66.0909C20.2434 66.1288 20.0975 66.1648 19.9347 66.1989C19.7718 66.2292 19.6089 66.2576 19.446 66.2841C19.2831 66.3068 19.1354 66.3277 19.0028 66.3466C18.7188 66.3883 18.4706 66.4545 18.2585 66.5455C18.0464 66.6364 17.8816 66.7595 17.7642 66.9148C17.6468 67.0663 17.5881 67.2557 17.5881 67.483C17.5881 67.8125 17.7074 68.0644 17.946 68.2386C18.1884 68.4091 18.4953 68.4943 18.8665 68.4943ZM27.3864 64.9545V70H24.9659V61.2727H27.2727V62.8125H27.375C27.5682 62.3049 27.892 61.9034 28.3466 61.608C28.8011 61.3087 29.3523 61.1591 30 61.1591C30.6061 61.1591 31.1345 61.2917 31.5852 61.5568C32.036 61.822 32.3864 62.2008 32.6364 62.6932C32.8864 63.1818 33.0114 63.7652 33.0114 64.4432V70H30.5909V64.875C30.5947 64.3409 30.4583 63.9242 30.1818 63.625C29.9053 63.322 29.5246 63.1705 29.0398 63.1705C28.714 63.1705 28.4261 63.2405 28.1761 63.3807C27.9299 63.5208 27.7367 63.7254 27.5966 63.9943C27.4602 64.2595 27.3902 64.5795 27.3864 64.9545ZM39.5611 61.2727V63.0909H34.3054V61.2727H39.5611ZM35.4986 59.1818H37.919V67.3182C37.919 67.5417 37.9531 67.7159 38.0213 67.8409C38.0895 67.9621 38.1842 68.0473 38.3054 68.0966C38.4304 68.1458 38.5743 68.1705 38.7372 68.1705C38.8509 68.1705 38.9645 68.161 39.0781 68.142C39.1918 68.1193 39.2789 68.1023 39.3395 68.0909L39.7202 69.892C39.599 69.9299 39.4285 69.9735 39.2088 70.0227C38.9891 70.0758 38.7221 70.108 38.4077 70.1193C37.8243 70.142 37.313 70.0644 36.8736 69.8864C36.438 69.7083 36.099 69.4318 35.8565 69.0568C35.6141 68.6818 35.4948 68.2083 35.4986 67.6364V59.1818ZM42.5526 70.1477C42.1776 70.1477 41.8556 70.0152 41.5866 69.75C41.3215 69.4811 41.1889 69.1591 41.1889 68.7841C41.1889 68.4129 41.3215 68.0947 41.5866 67.8295C41.8556 67.5644 42.1776 67.4318 42.5526 67.4318C42.9162 67.4318 43.2344 67.5644 43.5071 67.8295C43.7798 68.0947 43.9162 68.4129 43.9162 68.7841C43.9162 69.0341 43.8518 69.2633 43.723 69.4716C43.598 69.6761 43.4332 69.8409 43.2287 69.9659C43.0241 70.0871 42.7988 70.1477 42.5526 70.1477Z" fill="black"/>
</svg>
