<svg width="83" height="32" viewBox="0 0 83 32" fill="none" xmlns="http://www.w3.org/2000/svg">
<path d="M4 0H20L18 8H24V26C24 29.3137 21.3137 32 18 32H6C2.68629 32 0 29.3137 0 26V8H6L4 0Z" fill="black"/>
<path d="M33.0114 14V2.36364H35.4716V7.16477H40.4659V2.36364H42.9205V14H40.4659V9.19318H35.4716V14H33.0114ZM48.8466 14.1705C47.964 14.1705 47.2008 13.983 46.5568 13.608C45.9167 13.2292 45.4223 12.7027 45.0739 12.0284C44.7254 11.3504 44.5511 10.5644 44.5511 9.67045C44.5511 8.76894 44.7254 7.98106 45.0739 7.30682C45.4223 6.62879 45.9167 6.10227 46.5568 5.72727C47.2008 5.34848 47.964 5.15909 48.8466 5.15909C49.7292 5.15909 50.4905 5.34848 51.1307 5.72727C51.7746 6.10227 52.2708 6.62879 52.6193 7.30682C52.9678 7.98106 53.142 8.76894 53.142 9.67045C53.142 10.5644 52.9678 11.3504 52.6193 12.0284C52.2708 12.7027 51.7746 13.2292 51.1307 13.608C50.4905 13.983 49.7292 14.1705 48.8466 14.1705ZM48.858 12.2955C49.2595 12.2955 49.5947 12.1818 49.8636 11.9545C50.1326 11.7235 50.3352 11.4091 50.4716 11.0114C50.6117 10.6136 50.6818 10.161 50.6818 9.65341C50.6818 9.14583 50.6117 8.69318 50.4716 8.29545C50.3352 7.89773 50.1326 7.58333 49.8636 7.35227C49.5947 7.12121 49.2595 7.00568 48.858 7.00568C48.4527 7.00568 48.1117 7.12121 47.8352 7.35227C47.5625 7.58333 47.3561 7.89773 47.2159 8.29545C47.0795 8.69318 47.0114 9.14583 47.0114 9.65341C47.0114 10.161 47.0795 10.6136 47.2159 11.0114C47.3561 11.4091 47.5625 11.7235 47.8352 11.9545C48.1117 12.1818 48.4527 12.2955 48.858 12.2955ZM60.3125 10.2841V5.27273H62.733V14H60.4091V12.4148H60.3182C60.1212 12.9261 59.7936 13.3371 59.3352 13.6477C58.8807 13.9583 58.3258 14.1136 57.6705 14.1136C57.0871 14.1136 56.5739 13.9811 56.1307 13.7159C55.6875 13.4508 55.3409 13.0739 55.0909 12.5852C54.8447 12.0966 54.7197 11.5114 54.7159 10.8295V5.27273H57.1364V10.3977C57.1402 10.9129 57.2784 11.3201 57.5511 11.6193C57.8239 11.9186 58.1894 12.0682 58.6477 12.0682C58.9394 12.0682 59.2121 12.0019 59.4659 11.8693C59.7197 11.733 59.9242 11.5322 60.0795 11.267C60.2386 11.0019 60.3163 10.6742 60.3125 10.2841ZM71.9304 7.76136L69.7145 7.89773C69.6766 7.70833 69.5952 7.53788 69.4702 7.38636C69.3452 7.23106 69.1804 7.10795 68.9759 7.01705C68.7751 6.92235 68.5346 6.875 68.2543 6.875C67.8793 6.875 67.563 6.95455 67.3054 7.11364C67.0478 7.26894 66.919 7.47727 66.919 7.73864C66.919 7.94697 67.0024 8.12311 67.169 8.26705C67.3357 8.41098 67.6217 8.52652 68.027 8.61364L69.6065 8.93182C70.455 9.10606 71.0876 9.38636 71.5043 9.77273C71.9209 10.1591 72.1293 10.6667 72.1293 11.2955C72.1293 11.8674 71.9607 12.3693 71.6236 12.8011C71.2902 13.233 70.8319 13.5701 70.2486 13.8125C69.669 14.0511 69.0005 14.1705 68.2429 14.1705C67.0876 14.1705 66.1671 13.9299 65.4815 13.4489C64.7997 12.964 64.4001 12.3049 64.2827 11.4716L66.6634 11.3466C66.7353 11.6989 66.9096 11.9678 67.1861 12.1534C67.4626 12.3352 67.8168 12.4261 68.2486 12.4261C68.6728 12.4261 69.0137 12.3447 69.2713 12.1818C69.5327 12.0152 69.6652 11.8011 69.669 11.5398C69.6652 11.3201 69.5724 11.1402 69.3906 11C69.2088 10.8561 68.9285 10.7462 68.5497 10.6705L67.0384 10.3693C66.1861 10.1989 65.5516 9.90341 65.1349 9.48295C64.7221 9.0625 64.5156 8.52652 64.5156 7.875C64.5156 7.31439 64.6671 6.83144 64.9702 6.42614C65.277 6.02083 65.7069 5.70833 66.2599 5.48864C66.8168 5.26894 67.4683 5.15909 68.2145 5.15909C69.3168 5.15909 70.1842 5.39205 70.8168 5.85795C71.4531 6.32386 71.8243 6.95833 71.9304 7.76136ZM77.6307 14.1705C76.733 14.1705 75.9602 13.9886 75.3125 13.625C74.6686 13.2576 74.1723 12.7386 73.8239 12.0682C73.4754 11.3939 73.3011 10.5966 73.3011 9.67614C73.3011 8.77841 73.4754 7.99053 73.8239 7.3125C74.1723 6.63447 74.6629 6.10606 75.2955 5.72727C75.9318 5.34848 76.678 5.15909 77.5341 5.15909C78.1098 5.15909 78.6458 5.25189 79.142 5.4375C79.642 5.61932 80.0777 5.89394 80.4489 6.26136C80.8239 6.62879 81.1155 7.09091 81.3239 7.64773C81.5322 8.20076 81.6364 8.84848 81.6364 9.59091V10.2557H74.267V8.75568H79.358C79.358 8.4072 79.2822 8.09848 79.1307 7.82955C78.9792 7.56061 78.7689 7.35038 78.5 7.19886C78.2348 7.04356 77.9261 6.96591 77.5739 6.96591C77.2064 6.96591 76.8807 7.05114 76.5966 7.22159C76.3163 7.38826 76.0966 7.61364 75.9375 7.89773C75.7784 8.17803 75.697 8.49053 75.6932 8.83523V10.2614C75.6932 10.6932 75.7727 11.0663 75.9318 11.3807C76.0947 11.6951 76.3239 11.9375 76.6193 12.108C76.9148 12.2784 77.2652 12.3636 77.6705 12.3636C77.9394 12.3636 78.1856 12.3258 78.4091 12.25C78.6326 12.1742 78.8239 12.0606 78.983 11.9091C79.142 11.7576 79.2633 11.572 79.3466 11.3523L81.5852 11.5C81.4716 12.0379 81.2386 12.5076 80.8864 12.9091C80.5379 13.3068 80.0871 13.6174 79.5341 13.8409C78.9848 14.0606 78.3504 14.1705 77.6307 14.1705ZM33.0114 30V18.3636H37.6023C38.4848 18.3636 39.2367 18.5322 39.858 18.8693C40.4792 19.2027 40.9527 19.6667 41.2784 20.2614C41.608 20.8523 41.7727 21.5341 41.7727 22.3068C41.7727 23.0795 41.6061 23.7614 41.2727 24.3523C40.9394 24.9432 40.4564 25.4034 39.8239 25.733C39.1951 26.0625 38.4337 26.2273 37.5398 26.2273H34.6136V24.2557H37.142C37.6155 24.2557 38.0057 24.1742 38.3125 24.0114C38.6231 23.8447 38.8542 23.6155 39.0057 23.3239C39.161 23.0284 39.2386 22.6894 39.2386 22.3068C39.2386 21.9205 39.161 21.5833 39.0057 21.2955C38.8542 21.0038 38.6231 20.7784 38.3125 20.6193C38.0019 20.4564 37.608 20.375 37.1307 20.375H35.4716V30H33.0114ZM45.7457 18.3636V30H43.3253V18.3636H45.7457ZM50.1733 30.1648C49.6165 30.1648 49.1203 30.0682 48.6847 29.875C48.2491 29.678 47.9044 29.3883 47.6506 29.0057C47.4006 28.6193 47.2756 28.1383 47.2756 27.5625C47.2756 27.0777 47.3646 26.6705 47.5426 26.3409C47.7206 26.0114 47.9631 25.7462 48.2699 25.5455C48.5767 25.3447 48.9252 25.1932 49.3153 25.0909C49.7093 24.9886 50.1222 24.9167 50.554 24.875C51.0616 24.822 51.4706 24.7727 51.7812 24.7273C52.0919 24.678 52.3172 24.6061 52.4574 24.5114C52.5975 24.4167 52.6676 24.2765 52.6676 24.0909V24.0568C52.6676 23.697 52.554 23.4186 52.3267 23.2216C52.1032 23.0246 51.785 22.9261 51.3722 22.9261C50.9366 22.9261 50.59 23.0227 50.3324 23.2159C50.0748 23.4053 49.9044 23.6439 49.821 23.9318L47.5824 23.75C47.696 23.2197 47.9195 22.7614 48.2528 22.375C48.5862 21.9848 49.0161 21.6856 49.5426 21.4773C50.0729 21.2652 50.6866 21.1591 51.3835 21.1591C51.8684 21.1591 52.3324 21.2159 52.7756 21.3295C53.2225 21.4432 53.6184 21.6193 53.9631 21.858C54.3116 22.0966 54.5862 22.4034 54.7869 22.7784C54.9877 23.1496 55.0881 23.5947 55.0881 24.1136V30H52.7926V28.7898H52.7244C52.5843 29.0625 52.3968 29.303 52.1619 29.5114C51.9271 29.7159 51.6449 29.8769 51.3153 29.9943C50.9858 30.108 50.6051 30.1648 50.1733 30.1648ZM50.8665 28.4943C51.2225 28.4943 51.5369 28.4242 51.8097 28.2841C52.0824 28.1402 52.2964 27.947 52.4517 27.7045C52.607 27.4621 52.6847 27.1875 52.6847 26.8807V25.9545C52.6089 26.0038 52.5047 26.0492 52.3722 26.0909C52.2434 26.1288 52.0975 26.1648 51.9347 26.1989C51.7718 26.2292 51.6089 26.2576 51.446 26.2841C51.2831 26.3068 51.1354 26.3277 51.0028 26.3466C50.7188 26.3883 50.4706 26.4545 50.2585 26.5455C50.0464 26.6364 49.8816 26.7595 49.7642 26.9148C49.6468 27.0663 49.5881 27.2557 49.5881 27.483C49.5881 27.8125 49.7074 28.0644 49.946 28.2386C50.1884 28.4091 50.4953 28.4943 50.8665 28.4943ZM59.3864 24.9545V30H56.9659V21.2727H59.2727V22.8125H59.375C59.5682 22.3049 59.892 21.9034 60.3466 21.608C60.8011 21.3087 61.3523 21.1591 62 21.1591C62.6061 21.1591 63.1345 21.2917 63.5852 21.5568C64.036 21.822 64.3864 22.2008 64.6364 22.6932C64.8864 23.1818 65.0114 23.7652 65.0114 24.4432V30H62.5909V24.875C62.5947 24.3409 62.4583 23.9242 62.1818 23.625C61.9053 23.322 61.5246 23.1705 61.0398 23.1705C60.714 23.1705 60.4261 23.2405 60.1761 23.3807C59.9299 23.5208 59.7367 23.7254 59.5966 23.9943C59.4602 24.2595 59.3902 24.5795 59.3864 24.9545ZM71.5611 21.2727V23.0909H66.3054V21.2727H71.5611ZM67.4986 19.1818H69.919V27.3182C69.919 27.5417 69.9531 27.7159 70.0213 27.8409C70.0895 27.9621 70.1842 28.0473 70.3054 28.0966C70.4304 28.1458 70.5743 28.1705 70.7372 28.1705C70.8509 28.1705 70.9645 28.161 71.0781 28.142C71.1918 28.1193 71.2789 28.1023 71.3395 28.0909L71.7202 29.892C71.599 29.9299 71.4285 29.9735 71.2088 30.0227C70.9891 30.0758 70.7221 30.108 70.4077 30.1193C69.8243 30.142 69.313 30.0644 68.8736 29.8864C68.438 29.7083 68.099 29.4318 67.8565 29.0568C67.6141 28.6818 67.4948 28.2083 67.4986 27.6364V19.1818ZM74.5526 30.1477C74.1776 30.1477 73.8556 30.0152 73.5866 29.75C73.3215 29.4811 73.1889 29.1591 73.1889 28.7841C73.1889 28.4129 73.3215 28.0947 73.5866 27.8295C73.8556 27.5644 74.1776 27.4318 74.5526 27.4318C74.9162 27.4318 75.2344 27.5644 75.5071 27.8295C75.7798 28.0947 75.9162 28.4129 75.9162 28.7841C75.9162 29.0341 75.8518 29.2633 75.723 29.4716C75.598 29.6761 75.4332 29.8409 75.2287 29.9659C75.0241 30.0871 74.7988 30.1477 74.5526 30.1477Z" fill="black"/>
</svg>
