<svg width="128" height="128" viewBox="0 0 128 128" fill="none" xmlns="http://www.w3.org/2000/svg">
<path d="M92 12L100 42.2542L52 47H12V12H92Z" fill="black"/>
<path d="M107 46L116 106.345L104 116H28V46H107Z" fill="black"/>
<path d="M45.5228 31.6234C45.5228 31.6234 37.9154 35.7967 30.4469 33.7955C22.9784 31.7943 18.4769 24.3765 18.4769 24.3765C18.4769 24.3765 26.0842 20.2032 33.5527 22.2044C41.0213 24.2056 45.5228 31.6234 45.5228 31.6234Z" fill="#E1E1E1"/>
<path d="M77.5232 24.3765C77.5232 24.3765 73.0216 31.7943 65.5531 33.7955C58.0846 35.7967 50.4772 31.6234 50.4772 31.6234C50.4772 31.6234 54.9788 24.2056 62.4473 22.2044C69.9158 20.2032 77.5232 24.3765 77.5232 24.3765Z" fill="#E1E1E1"/>
<circle cx="32" cy="28" r="4" fill="black"/>
<circle cx="64" cy="28" r="4" fill="black"/>
</svg>
